# xmcd
#
# Track frame offsets:
#	150
#	17980
#	32315
#	43882
#	60120
#	72277
#	91922
#	103615
#	115722
#	132335
#	142112
#	150430
#	168240
#
# Disc length: 2376 seconds
#
# Revision: 1
# Processed by: cddbd v1.5.1PL0 Copyright (c) Steve Scherf et al.
# Submitted via: audiograbber 1.83.01
#
DISCID=a109460d
DTITLE=Bauernkapelle Dettenhausen - ...mal volkstümlich ...mal modern
DYEAR=1900
DGENRE=
TTITLE0=Sakvicka-Polka (Hallo, grüß Gott)
TTITLE1=Krepice-Polka (Prager Mädel)
TTITLE2=Schürzenwalzer
TTITLE3=Immer wenn ich einsam bin
TTITLE4=Märchenwalzer
TTITLE5=Die Liebste
TTITLE6=Rock-Opening
TTITLE7=Brasil
TTITLE8=Liebe ist ja nur ein Märchen
TTITLE9=Tanzende Trompeten
TTITLE10=Copacabana
TTITLE11=Dixieland Spectacular
TTITLE12=Ain't the sweet
EXTD=
EXTT0=
EXTT1=
EXTT2=
EXTT3=
EXTT4=
EXTT5=
EXTT6=
EXTT7=
EXTT8=
EXTT9=
EXTT10=
EXTT11=
EXTT12=
PLAYORDER=
